<svg xmlns="http://www.w3.org/2000/svg" viewBox="0 0 1280 720" width="100%" height="100%">
  <defs>
    <!-- Colores base -->
    <style>
      .bg { fill: #1f2731; }
      .grid-line { stroke: #2b3a4a; stroke-width: 1; }
      .border-line { stroke: #3e5368; stroke-width: 1.5; fill: none; }
      .text-main { font-family: 'Segoe UI', Arial, sans-serif; font-size: 42px; fill: #97b9d1; font-weight: 300; }
      .text-highlight { fill: #d1e5f4; font-weight: 500; }
      .blueprint-line { stroke: #6b93b2; stroke-width: 1.5; fill: none; }
      .blueprint-line-thin { stroke: #6b93b2; stroke-width: 1; fill: none; }
      .blueprint-fill { fill: #6b93b2; }
      .platform-top { fill: url(#platTopGrad); }
      .platform-front { fill: url(#platFrontGrad); }
      .platform-side { fill: #232e3a; }
      .dust { fill: url(#dustGrad); opacity: 0.8; }
    </style>

    <!-- Patrón de cuadrícula de fondo -->
    <pattern id="grid" width="40" height="40" patternUnits="userSpaceOnUse">
      <rect width="40" height="40" fill="none" class="grid-line"/>
    </pattern>

    <!-- Patrón de achurado para el borde de la plataforma -->
    <pattern id="hatch" width="4" height="4" patternTransform="rotate(45 0 0)" patternUnits="userSpaceOnUse">
      <line x1="0" y1="0" x2="0" y2="4" stroke="#48627a" stroke-width="1.5" />
    </pattern>

    <!-- Marcador de flecha para las líneas guía -->
    <marker id="arrow" viewBox="0 0 10 10" refX="9" refY="5" markerWidth="7" markerHeight="7" orient="auto-start-reverse">
      <path d="M 0 2 L 10 5 L 0 8 z" fill="#6b93b2" />
    </marker>
    
    <marker id="arrow-reverse" viewBox="0 0 10 10" refX="1" refY="5" markerWidth="7" markerHeight="7" orient="auto-start-reverse">
      <path d="M 10 2 L 0 5 L 10 8 z" fill="#6b93b2" />
    </marker>

    <!-- Gradientes -->
    <linearGradient id="platTopGrad" x1="0%" y1="0%" x2="100%" y2="100%">
      <stop offset="0%" stop-color="#465c71" />
      <stop offset="100%" stop-color="#24313f" />
    </linearGradient>

    <linearGradient id="platFrontGrad" x1="0%" y1="0%" x2="100%" y2="0%">
      <stop offset="0%" stop-color="#36495b" />
      <stop offset="100%" stop-color="#2a3847" />
    </linearGradient>

    <radialGradient id="ballGrad" cx="30%" cy="30%" r="70%">
      <stop offset="0%" stop-color="#93b7d2" />
      <stop offset="50%" stop-color="#5a7b97" />
      <stop offset="100%" stop-color="#2b3d4f" />
    </radialGradient>

    <radialGradient id="dustGrad" cx="50%" cy="50%" r="50%">
      <stop offset="0%" stop-color="#9dc1db" stop-opacity="1" />
      <stop offset="40%" stop-color="#6b93b2" stop-opacity="0.8" />
      <stop offset="100%" stop-color="#1f2731" stop-opacity="0" />
    </radialGradient>

    <!-- Filtro de brillo para la onda y las flechas principales -->
    <filter id="glow" x="-20%" y="-20%" width="140%" height="140%">
      <feGaussianBlur stdDeviation="3" result="blur" />
      <feComposite in="SourceGraphic" in2="blur" operator="over" />
    </filter>
  </defs>

  <!-- Fondo -->
  <rect width="1280" height="720" class="bg" />
  <rect width="1280" height="720" fill="url(#grid)" />
  <rect x="20" y="20" width="1240" height="680" class="border-line" />

  <!-- TEXTO PRINCIPAL -->
  <g transform="translate(130, 120)">
    <!-- Caja de resaltado para 'timing' -->
    <rect x="376" y="-38" width="136" height="58" rx="8" fill="#384f68" opacity="0.6" stroke="#486a8a" stroke-width="1"/>
    
    <text class="text-main">
      <tspan x="0" dy="0">Guías practican el </tspan>
      <tspan class="text-highlight">timing</tspan>
      <tspan x="0" dy="65">haciendo clic cuando una</tspan>
      <tspan x="0" dy="65">pelota de tenis impacta el</tspan>
      <tspan x="0" dy="65">suelo, sin perro.</tspan>
    </text>
  </g>

  <!-- LÍNEAS GUÍA DE FONDO (Dimensiones) -->
  <g class="blueprint-line-thin">
    <!-- Línea horizontal superior del cronómetro -->
    <line x1="640" y1="165" x2="1070" y2="165" />
    <path d="M 640 160 L 640 170 M 1070 160 L 1070 170" />
    <!-- Línea que sale del rebote (derecha) -->
    <line x1="825" y1="560" x2="1080" y2="280" marker-end="url(#arrow)" />
    <!-- Línea horizontal superior de la plataforma -->
    <line x1="1050" y1="280" x2="1140" y2="280" />
  </g>

  <!-- ONDA / FORMA DE ONDA (Waveform) -->
  <g transform="translate(825, 165)">
    <!-- Eje central -->
    <line x1="-185" y1="0" x2="205" y2="0" class="blueprint-line" />
    <!-- Onda gráfica -->
    <path d="M -130 0 C -110 0, -100 -25, -90 -25 C -75 -25, -60 30, -45 30 C -25 30, -15 -80, 0 -80 C 15 -80, 25 70, 45 70 C 60 70, 75 -35, 90 -35 C 100 -35, 110 0, 130 0" 
          class="blueprint-line" stroke-width="2.5" filter="url(#glow)"/>
    <!-- Línea vertical central -->
    <line x1="0" y1="-95" x2="0" y2="135" class="blueprint-line" stroke-dasharray="8 4" opacity="0.6"/>
  </g>

  <!-- PLATAFORMA 3D -->
  <g transform="translate(460, 480)">
    <!-- Dimension lines behind platform -->
    <line x1="-68" y1="-80" x2="20" y2="-30" class="blueprint-line-thin" marker-end="url(#arrow)" />
    <line x1="-100" y1="-80" x2="-40" y2="-80" class="blueprint-line-thin" />
    <line x1="-48" y1="20" x2="80" y2="90" class="blueprint-line-thin" marker-start="url(#arrow-reverse)" />
    <line x1="-80" y1="20" x2="-20" y2="20" class="blueprint-line-thin" />

    <!-- Cara superior -->
    <polygon points="0,110 570,110 715,35 145,35" class="platform-top" stroke="#7297b4" stroke-width="1.5" stroke-linejoin="round"/>
    
    <!-- Cara frontal achurada -->
    <polygon points="0,110 570,110 570,135 0,135" fill="url(#hatch)" stroke="#7297b4" stroke-width="1.5"/>
    <polygon points="0,110 570,110 570,135 0,135" fill="#304355" opacity="0.4" />
    
    <!-- Cara lateral derecha -->
    <polygon points="570,110 715,35 715,60 570,135" fill="#202d3a" stroke="#7297b4" stroke-width="1.5"/>

    <!-- Líneas de dimensión en la plataforma derecha -->
    <g class="blueprint-line-thin">
      <!-- Cotas verticales cerca del impacto -->
      <line x1="365" y1="40" x2="365" y2="110" />
      <line x1="365" y1="40" x2="365" y2="60" marker-start="url(#arrow-reverse)" />
      <line x1="365" y1="110" x2="365" y2="90" marker-start="url(#arrow-reverse)" />
      
      <!-- Líneas horizontales para cotas -->
      <line x1="340" y1="40" x2="390" y2="40" />
      <line x1="340" y1="110" x2="390" y2="110" />
      
      <!-- Línea inferior con cota central -->
      <line x1="185" y1="175" x2="435" y2="175" />
      <line x1="185" y1="165" x2="185" y2="185" />
      <line x1="435" y1="165" x2="435" y2="185" />
      <!-- Flechas en la cota inferior -->
      <line x1="310" y1="175" x2="330" y2="175" marker-start="url(#arrow-reverse)" />
      <line x1="310" y1="175" x2="290" y2="175" marker-start="url(#arrow-reverse)" />
      
      <line x1="310" y1="110" x2="310" y2="190" />
    </g>
    
    <!-- Línea angular derecha baja -->
    <line x1="310" y1="110" x2="430" y2="200" class="blueprint-line-thin" />
    <line x1="410" y1="200" x2="470" y2="200" class="blueprint-line-thin" />
  </g>

  <!-- PELOTA DE TENIS (Tennis Ball) -->
  <g transform="translate(605, 525)">
    <!-- Sombra de la pelota -->
    <ellipse cx="20" cy="50" rx="35" ry="8" fill="#151b22" opacity="0.8" />
    <!-- Cuerpo de la pelota -->
    <circle cx="0" cy="0" r="52" fill="url(#ballGrad)" stroke="#7ca3c3" stroke-width="1.5" />
    <!-- Costura 1 (Izquierda) -->
    <path d="M -30,-42 C 0,-30 25,-5 25,45" fill="none" stroke="#1f2731" stroke-width="4" />
    <path d="M -30,-42 C 0,-30 25,-5 25,45" fill="none" stroke="#7ca3c3" stroke-width="1.5" />
    <!-- Costura 2 (Derecha - insinuada en el borde) -->
    <path d="M 46,-20 C 35,-5 35,25 46,25" fill="none" stroke="#1f2731" stroke-width="4" />
    <path d="M 46,-20 C 35,-5 35,25 46,25" fill="none" stroke="#7ca3c3" stroke-width="1.5" />
    
    <!-- Líneas de movimiento de la pelota -->
    <path d="M 58 20 C 68 22 75 25 85 28" fill="none" stroke="#7ca3c3" stroke-width="2" stroke-dasharray="4 4" opacity="0.7"/>
    <path d="M 60 5 C 75 10 85 15 100 20" fill="none" stroke="#7ca3c3" stroke-width="1.5" opacity="0.6"/>
  </g>

  <!-- NUBE DE POLVO (Impacto) -->
  <g transform="translate(825, 590)">
    <!-- Círculos de polvo base -->
    <circle cx="-130" cy="-25" r="18" class="dust" />
    <circle cx="-100" cy="-35" r="28" class="dust" />
    <circle cx="-70" cy="-30" r="32" class="dust" />
    <circle cx="-45" cy="-20" r="22" class="dust" />
    <circle cx="-25" cy="-15" r="15" class="dust" />
    <circle cx="-5" cy="-10" r="8" class="dust" />
    
    <!-- Detalles/Sombras del polvo para dar volumen -->
    <path d="M -100 -60 A 28 28 0 0 0 -125 -30 A 18 18 0 0 0 -105 -15 A 28 28 0 0 1 -100 -60" fill="#4d6f8a" opacity="0.5"/>
    <path d="M -70 -62 A 32 32 0 0 0 -100 -35 A 28 28 0 0 0 -80 -10 A 32 32 0 0 1 -70 -62" fill="#4d6f8a" opacity="0.5"/>
  </g>

  <!-- LÍNEAS DE VECTORES RADIALES (Desde el impacto) -->
  <g class="blueprint-line" marker-end="url(#arrow)" filter="url(#glow)">
    <!-- Punto de impacto central (x=825, y=590 approx) -->
    <!-- Flecha hacia la izquierda/arriba -->
    <line x1="825" y1="590" x2="610" y2="165" />
    <line x1="825" y1="590" x2="615" y2="365" />
    <line x1="825" y1="590" x2="685" y2="355" />
    <line x1="825" y1="590" x2="710" y2="400" />
    <line x1="825" y1="590" x2="765" y2="390" />
    
    <!-- Flechas hacia la derecha/arriba -->
    <line x1="825" y1="590" x2="965" y2="360" />
    <line x1="825" y1="590" x2="1055" y2="435" />
    <line x1="825" y1="590" x2="1040" y2="480" />
  </g>

  <!-- LÍNEAS FINAS DE DISEÑO SOBRE VECTORES -->
  <g class="blueprint-line-thin">
    <path d="M 825 590 L 980 435" />
    <path d="M 825 590 L 1055 520" />
    <path d="M 825 590 L 935 480" />
  </g>

  <!-- CRONÓMETRO (Stopwatch) -->
  <g transform="translate(825, 335)">
    <!-- Sombra/brillo exterior del cronómetro -->
    <circle cx="0" cy="0" r="82" fill="#1a232c" stroke="#486a8a" stroke-width="1"/>
    
    <!-- Cuerpo exterior e interior -->
    <circle cx="0" cy="0" r="78" fill="#202b35" stroke="#7297b4" stroke-width="2.5"/>
    <circle cx="0" cy="0" r="70" fill="none" stroke="#7297b4" stroke-width="1"/>
    
    <!-- Corona/Botón superior -->
    <!-- Base de la corona -->
    <rect x="-14" y="-95" width="28" height="18" fill="#202b35" stroke="#7297b4" stroke-width="1.5" />
    <!-- Botón corrugado -->
    <rect x="-18" y="-105" width="36" height="10" fill="#202b35" stroke="#7297b4" stroke-width="1.5" rx="2" />
    <line x1="-12" y1="-105" x2="-12" y2="-95" class="blueprint-line-thin"/>
    <line x1="-4" y1="-105" x2="-4" y2="-95" class="blueprint-line-thin"/>
    <line x1="4" y1="-105" x2="4" y2="-95" class="blueprint-line-thin"/>
    <line x1="12" y1="-105" x2="12" y2="-95" class="blueprint-line-thin"/>
    
    <!-- Anillo superior (Ring) -->
    <circle cx="0" cy="-78" r="22" fill="none" stroke="#7297b4" stroke-width="2" clip-path="url(#ringClip)"/>
    <!-- Clip para ocultar la parte inferior del anillo detrás del botón -->
    <clipPath id="ringClip">
      <rect x="-30" y="-110" width="60" height="25" />
    </clipPath>

    <!-- Botones laterales (Pulsadores) -->
    <g transform="rotate(35)">
      <rect x="-8" y="-88" width="16" height="10" fill="#202b35" stroke="#7297b4" stroke-width="1.5" />
      <rect x="-10" y="-93" width="20" height="5" fill="#7297b4" rx="1" />
    </g>
    <g transform="rotate(-35)">
      <rect x="-8" y="-88" width="16" height="10" fill="#202b35" stroke="#7297b4" stroke-width="1.5" />
      <rect x="-10" y="-93" width="20" height="5" fill="#7297b4" rx="1" />
    </g>

    <!-- Marcas del dial (Ticks) -->
    <g stroke="#7297b4">
      <!-- Generamos las marcas iterando con rotaciones -->
      <line x1="0" y1="-65" x2="0" y2="-70" stroke-width="2" transform="rotate(0)" />
      <line x1="0" y1="-67" x2="0" y2="-70" stroke-width="1" transform="rotate(6)" />
      <line x1="0" y1="-67" x2="0" y2="-70" stroke-width="1" transform="rotate(12)" />
      <line x1="0" y1="-67" x2="0" y2="-70" stroke-width="1" transform="rotate(18)" />
      <line x1="0" y1="-67" x2="0" y2="-70" stroke-width="1" transform="rotate(24)" />
      
      <line x1="0" y1="-65" x2="0" y2="-70" stroke-width="2" transform="rotate(30)" />
      <line x1="0" y1="-67" x2="0" y2="-70" stroke-width="1" transform="rotate(36)" />
      <line x1="0" y1="-67" x2="0" y2="-70" stroke-width="1" transform="rotate(42)" />
      <line x1="0" y1="-67" x2="0" y2="-70" stroke-width="1" transform="rotate(48)" />
      <line x1="0" y1="-67" x2="0" y2="-70" stroke-width="1" transform="rotate(54)" />

      <line x1="0" y1="-65" x2="0" y2="-70" stroke-width="2" transform="rotate(60)" />
      <line x1="0" y1="-67" x2="0" y2="-70" stroke-width="1" transform="rotate(66)" />
      <line x1="0" y1="-67" x2="0" y2="-70" stroke-width="1" transform="rotate(72)" />
      <line x1="0" y1="-67" x2="0" y2="-70" stroke-width="1" transform="rotate(78)" />
      <line x1="0" y1="-67" x2="0" y2="-70" stroke-width="1" transform="rotate(84)" />

      <line x1="0" y1="-65" x2="0" y2="-70" stroke-width="2" transform="rotate(90)" />
      <line x1="0" y1="-67" x2="0" y2="-70" stroke-width="1" transform="rotate(96)" />
      <line x1="0" y1="-67" x2="0" y2="-70" stroke-width="1" transform="rotate(102)" />
      <line x1="0" y1="-67" x2="0" y2="-70" stroke-width="1" transform="rotate(108)" />
      <line x1="0" y1="-67" x2="0" y2="-70" stroke-width="1" transform="rotate(114)" />

      <line x1="0" y1="-65" x2="0" y2="-70" stroke-width="2" transform="rotate(120)" />
      <line x1="0" y1="-67" x2="0" y2="-70" stroke-width="1" transform="rotate(126)" />
      <line x1="0" y1="-67" x2="0" y2="-70" stroke-width="1" transform="rotate(132)" />
      <line x1="0" y1="-67" x2="0" y2="-70" stroke-width="1" transform="rotate(138)" />
      <line x1="0" y1="-67" x2="0" y2="-70" stroke-width="1" transform="rotate(144)" />

      <line x1="0" y1="-65" x2="0" y2="-70" stroke-width="2" transform="rotate(150)" />
      <line x1="0" y1="-67" x2="0" y2="-70" stroke-width="1" transform="rotate(156)" />
      <line x1="0" y1="-67" x2="0" y2="-70" stroke-width="1" transform="rotate(162)" />
      <line x1="0" y1="-67" x2="0" y2="-70" stroke-width="1" transform="rotate(168)" />
      <line x1="0" y1="-67" x2="0" y2="-70" stroke-width="1" transform="rotate(174)" />

      <line x1="0" y1="-65" x2="0" y2="-70" stroke-width="2" transform="rotate(180)" />
      <line x1="0" y1="-67" x2="0" y2="-70" stroke-width="1" transform="rotate(186)" />
      <line x1="0" y1="-67" x2="0" y2="-70" stroke-width="1" transform="rotate(192)" />
      <line x1="0" y1="-67" x2="0" y2="-70" stroke-width="1" transform="rotate(198)" />
      <line x1="0" y1="-67" x2="0" y2="-70" stroke-width="1" transform="rotate(204)" />

      <line x1="0" y1="-65" x2="0" y2="-70" stroke-width="2" transform="rotate(210)" />
      <line x1="0" y1="-67" x2="0" y2="-70" stroke-width="1" transform="rotate(216)" />
      <line x1="0" y1="-67" x2="0" y2="-70" stroke-width="1" transform="rotate(222)" />
      <line x1="0" y1="-67" x2="0" y2="-70" stroke-width="1" transform="rotate(228)" />
      <line x1="0" y1="-67" x2="0" y2="-70" stroke-width="1" transform="rotate(234)" />

      <line x1="0" y1="-65" x2="0" y2="-70" stroke-width="2" transform="rotate(240)" />
      <line x1="0" y1="-67" x2="0" y2="-70" stroke-width="1" transform="rotate(246)" />
      <line x1="0" y1="-67" x2="0" y2="-70" stroke-width="1" transform="rotate(252)" />
      <line x1="0" y1="-67" x2="0" y2="-70" stroke-width="1" transform="rotate(258)" />
      <line x1="0" y1="-67" x2="0" y2="-70" stroke-width="1" transform="rotate(264)" />

      <line x1="0" y1="-65" x2="0" y2="-70" stroke-width="2" transform="rotate(270)" />
      <line x1="0" y1="-67" x2="0" y2="-70" stroke-width="1" transform="rotate(276)" />
      <line x1="0" y1="-67" x2="0" y2="-70" stroke-width="1" transform="rotate(282)" />
      <line x1="0" y1="-67" x2="0" y2="-70" stroke-width="1" transform="rotate(288)" />
      <line x1="0" y1="-67" x2="0" y2="-70" stroke-width="1" transform="rotate(294)" />

      <line x1="0" y1="-65" x2="0" y2="-70" stroke-width="2" transform="rotate(300)" />
      <line x1="0" y1="-67" x2="0" y2="-70" stroke-width="1" transform="rotate(306)" />
      <line x1="0" y1="-67" x2="0" y2="-70" stroke-width="1" transform="rotate(312)" />
      <line x1="0" y1="-67" x2="0" y2="-70" stroke-width="1" transform="rotate(318)" />
      <line x1="0" y1="-67" x2="0" y2="-70" stroke-width="1" transform="rotate(324)" />

      <line x1="0" y1="-65" x2="0" y2="-70" stroke-width="2" transform="rotate(330)" />
      <line x1="0" y1="-67" x2="0" y2="-70" stroke-width="1" transform="rotate(336)" />
      <line x1="0" y1="-67" x2="0" y2="-70" stroke-width="1" transform="rotate(342)" />
      <line x1="0" y1="-67" x2="0" y2="-70" stroke-width="1" transform="rotate(348)" />
      <line x1="0" y1="-67" x2="0" y2="-70" stroke-width="1" transform="rotate(354)" />
    </g>

    <!-- Números del Dial Principal -->
    <g fill="#7297b4" font-family="sans-serif" font-size="10" text-anchor="middle" dominant-baseline="central">
      <text x="0" y="-55">55</text>
      <text x="27" y="-47">5</text>
      <text x="47" y="-27">10</text>
      <text x="55" y="0">15</text>
      <text x="47" y="27">20</text>
      <text x="27" y="47">25</text>
      <text x="0" y="55">30</text>
      <text x="-27" y="47">35</text>
      <text x="-47" y="27">40</text>
      <text x="-55" y="0">45</text>
      <text x="-47" y="-27">50</text>
      <text x="-27" y="-47">55</text> <!-- Repite en la imagen orginal para simetría visual -->
    </g>

    <!-- Dial Interior (Pequeño) -->
    <g transform="translate(0, -20)">
      <circle cx="0" cy="0" r="18" fill="none" stroke="#7297b4" stroke-width="1.5"/>
      <line x1="0" y1="-14" x2="0" y2="-18" stroke="#7297b4" stroke-width="1"/>
      <line x1="0" y1="14" x2="0" y2="18" stroke="#7297b4" stroke-width="1"/>
      <line x1="-14" y1="0" x2="-18" y2="0" stroke="#7297b4" stroke-width="1"/>
      <line x1="14" y1="0" x2="18" y2="0" stroke="#7297b4" stroke-width="1"/>
      <!-- Manecilla pequeña -->
      <line x1="0" y1="0" x2="5" y2="-12" stroke="#7297b4" stroke-width="1.5" />
      <circle cx="0" cy="0" r="2" class="blueprint-fill" />
      <text x="-8" y="2" fill="#7297b4" font-size="6" font-family="sans-serif">30</text>
      <text x="8" y="2" fill="#7297b4" font-size="6" font-family="sans-serif">15</text>
    </g>

    <!-- Dial Inferior (Aún más pequeño) -->
    <g transform="translate(0, 25)">
      <circle cx="0" cy="0" r="12" fill="none" stroke="#7297b4" stroke-width="1"/>
      <line x1="0" y1="0" x2="0" y2="-10" stroke="#7297b4" stroke-width="1" />
    </g>

    <!-- Manecilla Principal -->
    <g filter="url(#glow)">
      <line x1="0" y1="5" x2="0" y2="-65" stroke="#97b9d1" stroke-width="2.5" />
      <!-- Contrapeso manecilla -->
      <circle cx="0" cy="0" r="4.5" fill="#202b35" stroke="#97b9d1" stroke-width="2"/>
      <circle cx="0" cy="0" r="1.5" fill="#97b9d1" />
      <line x1="0" y1="0" x2="0" y2="15" stroke="#97b9d1" stroke-width="1.5" />
      <!-- Círculo al final del contrapeso -->
      <circle cx="0" cy="15" r="2.5" fill="none" stroke="#97b9d1" stroke-width="1.5"/>
    </g>
  </g>

  <!-- ICONOS ESQUINA INFERIOR IZQUIERDA -->
  <g transform="translate(45, 490)" stroke="#7ca3c3" fill="none" stroke-width="1.5" stroke-linecap="round" stroke-linejoin="round">
    
    <!-- Pelota de tenis pequeña superior -->
    <g transform="translate(0, 10)">
      <circle cx="20" cy="20" r="14" />
      <path d="M 9,12 C 20,16 22,28 11,31" />
      <path d="M 31,12 C 20,16 18,28 29,31" />
    </g>

    <!-- Raqueta 1 (Fondo) -->
    <g transform="translate(30, 80) rotate(-40) scale(0.85)">
      <!-- Cuerdas (Grid) -->
      <path d="M -15,-10 L 15,-10 M -18,0 L 18,0 M -15,10 L 15,10 M -8,-20 L -8,20 M 0,-22 L 0,22 M 8,-20 L 8,20" stroke-width="1" opacity="0.6"/>
      <!-- Cabeza -->
      <ellipse cx="0" cy="0" rx="20" ry="28" stroke-width="2"/>
      <!-- Cuello -->
      <path d="M -8,25 L -5,45 M 8,25 L 5,45" stroke-width="2"/>
      <path d="M -5,45 L 5,45" />
      <!-- Mango -->
      <rect x="-5" y="45" width="10" height="35" rx="1" stroke-width="2"/>
      <!-- Grips -->
      <line x1="-5" y1="50" x2="5" y2="55" stroke-width="1"/>
      <line x1="-5" y1="58" x2="5" y2="63" stroke-width="1"/>
      <line x1="-5" y1="66" x2="5" y2="71" stroke-width="1"/>
      <!-- Tapón -->
      <path d="M -6,80 L 6,80 L 5,84 L -5,84 Z" fill="#7ca3c3" />
    </g>

    <!-- Raqueta 2 (Frente) -->
    <g transform="translate(60, 45) rotate(40) scale(1)">
      <!-- Cuerdas (Grid) -->
      <path d="M -15,-10 L 15,-10 M -18,0 L 18,0 M -15,10 L 15,10 M -8,-20 L -8,20 M 0,-22 L 0,22 M 8,-20 L 8,20" stroke-width="1" opacity="0.6"/>
      <!-- Cabeza -->
      <ellipse cx="0" cy="0" rx="22" ry="32" stroke-width="2.5" fill="#1f2731" fill-opacity="0.8"/> 
      <!-- Se repiten cuerdas sobre el fondo para que no se oculten -->
      <path d="M -15,-10 L 15,-10 M -18,0 L 18,0 M -15,10 L 15,10 M -8,-20 L -8,20 M 0,-22 L 0,22 M 8,-20 L 8,20" stroke-width="1" opacity="0.6"/>
      <!-- Borde grueso cabeza -->
      <ellipse cx="0" cy="0" rx="22" ry="32" stroke-width="2.5"/>
      <!-- Cuello -->
      <path d="M -10,28 L -6,50 M 10,28 L 6,50" stroke-width="2.5"/>
      <path d="M -6,50 L 6,50" stroke-width="2.5"/>
      <path d="M -10,28 L 0,38 L 10,28" stroke-width="1.5"/>
      <!-- Mango -->
      <rect x="-6" y="50" width="12" height="42" rx="1.5" stroke-width="2.5" fill="#1f2731"/>
      <!-- Grips cruzados (cinta) -->
      <line x1="-6" y1="55" x2="6" y2="60" stroke-width="1"/>
      <line x1="-6" y1="63" x2="6" y2="68" stroke-width="1"/>
      <line x1="-6" y1="71" x2="6" y2="76" stroke-width="1"/>
      <line x1="-6" y1="79" x2="6" y2="84" stroke-width="1"/>
      <!-- Tapón -->
      <path d="M -7,92 L 7,92 L 5,96 L -5,96 Z" fill="#7ca3c3" />
    </g>
    
    <!-- Pelota de tenis pequeña inferior -->
    <g transform="translate(60, 160) scale(0.9)">
      <circle cx="20" cy="20" r="14" />
      <path d="M 9,12 C 20,16 22,28 11,31" />
      <path d="M 31,12 C 20,16 18,28 29,31" />
    </g>
  </g>

  <!-- PUNTERO DEL RATÓN (Cursor) -->
  <g transform="translate(425, 660) scale(0.8)" stroke="#ffffff" stroke-width="1.5" stroke-linejoin="round">
    <polygon points="0,0 0,18 4,14 8,22 10,21 6,13 13,13" fill="#111111" />
  </g>

  <!-- MARCA DE AGUA (Bottom Right) -->
  <g transform="translate(1160, 705)" fill="#48627a" font-family="sans-serif" font-size="10" opacity="0.6">
    <path d="M 0,-4 A 4,4 0 0,1 8,-4 A 4,4 0 0,1 16,-4" fill="none" stroke="#48627a" stroke-width="1.5" />
    <text x="20" y="0">Gemini Notebook</text>
  </g>
</svg>